<?xml version="1.0" encoding="utf-8"?>
<!-- Generator: Adobe Illustrator 28.2.0, SVG Export Plug-In . SVG Version: 6.00 Build 0)  -->
<svg version="1.1" id="Layer_1" xmlns="http://www.w3.org/2000/svg" xmlns:xlink="http://www.w3.org/1999/xlink" x="0px" y="0px"
	 viewBox="0 0 76 76" style="enable-background:new 0 0 76 76;" xml:space="preserve">
<g>
	<path d="M64.9,11.1C57.7,4,48.2,0,38,0S18.3,4,11.1,11.1C4,18.3,0,27.8,0,38s4,19.7,11.1,26.9C18.3,72,27.8,76,38,76
		s19.7-4,26.9-11.1C72,57.7,76,48.2,76,38S72,18.3,64.9,11.1z M38,71.3C19.6,71.3,4.7,56.4,4.7,38S19.6,4.7,38,4.7
		S71.3,19.6,71.3,38S56.4,71.3,38,71.3z"/>
	<path d="M49.9,36.3c3,0,5.5-2.5,5.5-5.5c0-3-2.5-5.5-5.5-5.5c-3,0-5.5,2.5-5.5,5.5C44.4,33.8,46.9,36.3,49.9,36.3z"/>
	<path d="M26.1,36.3c3,0,5.5-2.5,5.5-5.5c0-3-2.5-5.5-5.5-5.5s-5.5,2.5-5.5,5.5C20.6,33.8,23.1,36.3,26.1,36.3z"/>
	<path d="M38,55.6c-7.4,0-14-4.6-16.5-11.5L17,45.7c3.2,8.7,11.6,14.6,21,14.6s17.7-5.9,21-14.6l-4.4-1.6C52,51,45.4,55.6,38,55.6z"
		/>
</g>
</svg>
